<svg width="31" height="30" xmlns="http://www.w3.org/2000/svg" xmlns:xlink="http://www.w3.org/1999/xlink"><defs><path d="M28.934 10.595a1.353 1.353 0 0 0-1.09-.929l-8.383-1.23L15.712.76A1.35 1.35 0 0 0 14.501 0a1.35 1.35 0 0 0-1.212.761l-3.75 7.675-8.382 1.23c-.51.075-.932.435-1.091.93a1.375 1.375 0 0 0 .342 1.399l6.066 5.973-1.432 8.435c-.086.513.121 1.03.538 1.336.416.306.967.346 1.424.103l7.498-3.982 7.497 3.982a1.343 1.343 0 0 0 1.422-.103c.417-.306.624-.823.538-1.336l-1.432-8.435 6.066-5.973c.367-.363.5-.905.34-1.4" id="a"/></defs><g transform="translate(1 1)" fill="none" fill-rule="evenodd"><mask id="b" fill="#fff"><use xlink:href="#a"/></mask><use stroke="#FF9500" stroke-width="2" xlink:href="#a"/><path fill="#FF9500" mask="url(#b)" d="M-10 1h50v29h-50z"/></g></svg>