<?xml version="1.0" encoding="UTF-8"?>
<svg width="20px" height="20px" viewBox="0 0 20 20" version="1.1" xmlns="http://www.w3.org/2000/svg" xmlns:xlink="http://www.w3.org/1999/xlink">
    <!-- Generator: Sketch 56.2 (81672) - https://sketch.com -->
    <title>编组</title>
    <desc>Created with Sketch.</desc>
    <g id="范团精选1.5" stroke="none" stroke-width="1" fill="none" fill-rule="evenodd">
        <g id="2-3-1我的-优惠券" transform="translate(-652.000000, -607.000000)" fill="#FF2266" fill-rule="nonzero">
            <g id="title-list-title备份-2" transform="translate(32.000000, 506.000000)">
                <g id="方向键" transform="translate(620.000000, 101.000000)">
                    <g id="编组" transform="translate(10.000000, 10.000000) scale(1, -1) translate(-10.000000, -10.000000) ">
                        <path d="M10,20 C15.5228475,20 20,15.5228475 20,10 C20,4.4771525 15.5228475,0 10,0 C4.4771525,0 0,4.4771525 0,10 C0,15.5228475 4.4771525,20 10,20 Z M10,18 C5.581722,18 2,14.418278 2,10 C2,5.581722 5.581722,2 10,2 C14.418278,2 18,5.581722 18,10 C18,14.418278 14.418278,18 10,18 Z" id="椭圆形"></path>
                        <path d="M8,11 L8,6 C8,5.44771525 7.55228475,5 7,5 C6.44771525,5 6,5.44771525 6,6 L6,12 C6,12.5522847 6.44771525,13 7,13 L13,13 C13.5522847,13 14,12.5522847 14,12 C14,11.4477153 13.5522847,11 13,11 L8,11 Z" id="路径" transform="translate(10.000000, 9.000000) rotate(-45.000000) translate(-10.000000, -9.000000) "></path>
                    </g>
                </g>
            </g>
        </g>
    </g>
</svg>